<?xml version="1.0" encoding="utf-8"?>
<!-- Generator: Adobe Illustrator 23.0.6, SVG Export Plug-In . SVG Version: 6.00 Build 0)  -->
<svg version="1.1" id="Layer_1" xmlns="http://www.w3.org/2000/svg" xmlns:xlink="http://www.w3.org/1999/xlink" x="0px" y="0px"
	 viewBox="0 0 400.7 150.2" style="enable-background:new 0 0 400.7 150.2;" xml:space="preserve">
<g>
	<path d="M0.1,40.9v68.4h68.4V40.9H0.1z M16.3,80.7h7.2v2.4h-7.2V80.7z M16.3,84.3h7.2v2.2h-7.2V84.3z M29.9,93.6H16.3v-2.5h13.6
		V93.6z M29.9,90H16.3v-2.2h13.6V90z M53.7,78.9H38.9v14.7h-7.4V78.9H16.6v-7.4h14.8v-15h7.4v15h14.8V78.9z"/>
	<g id="sdL0wK_1_">
		<g>
			<path d="M329.6,74c0,3.7,0,7.4,0,11.1c0,3.3,0,3.3-3.4,3.3c-0.5,0-1.1,0-1.6,0c-1.2,0-1.6-0.6-1.6-1.7c0-7.7,0-15.4,0-23.1
				c0-1.1,0.5-1.6,1.6-1.7c2.7-0.2,4.9,0,6.6,2.7c2.6,4.1,5.7,7.8,8.6,11.9c0.6-0.9,0.4-1.8,0.4-2.6c0-3.3,0.1-6.5,0-9.8
				c0-1.5,0.6-2.3,2.1-2.2c0.2,0,0.5,0,0.7,0c3.8,0,3.8,0,3.8,3.9c0,6.7-0.1,13.3,0,20c0,2-0.5,2.8-2.7,2.8
				c-2.5,0.1-4.2-0.7-5.6-2.8c-2.7-4-5.6-7.8-8.5-11.7C329.9,74,329.8,74,329.6,74z"/>
			<path d="M352.1,75c0-3.6,0-7.3,0-10.9c0-1.3,0.2-2.3,1.8-2.3c4.1,0.1,8.2-0.4,12.2,0.3c7.2,1.2,11.7,6.7,11.3,13.9
				c-0.4,7.1-5.6,12.1-12.9,12.4c-3.4,0.1-6.8,0-10.2,0.1c-1.7,0-2.2-0.7-2.2-2.3C352.2,82.4,352.1,78.7,352.1,75z M358.7,75.1
				c0,0.8,0,1.5,0,2.3c0.1,5.5-0.9,4.9,4.9,4.9c4,0,6.7-2.5,7-6.2c0.3-3.9-1.9-7-5.8-7.7c-1.4-0.3-2.8-0.2-4.3-0.2
				c-1.3-0.1-1.9,0.5-1.9,1.9C358.7,71.6,358.7,73.3,358.7,75.1z"/>
			<path d="M273.4,75.2c0-3.6,0.1-7.3,0-10.9c0-1.7,0.5-2.6,2.3-2.5c3.5,0.2,7-0.3,10.4,0.4c3.7,0.7,6.5,2.6,7.5,6.3
				c1,3.7,0.2,6.9-3,9.3c-1.1,0.8-0.9,1.5-0.3,2.5c1.3,2.1,2.5,4.2,3.8,6.2c0.8,1.3,0.6,1.8-1,1.9c-3.6,0.4-6.3-0.4-7.6-4.2
				c-0.4-1.3-1.3-2.4-2-3.5c-0.5-1-1.4-1-2.4-0.9c-1.2,0.2-1,1.1-1,1.9c0,1,0.1,2,0,3c-0.1,1.2,0.6,2.8-0.7,3.3
				c-1.6,0.7-3.4,0.4-5.1,0.1c-1-0.2-0.8-1.2-0.8-1.9C273.4,82.6,273.5,78.9,273.4,75.2z M280.1,71c-0.4,2.1,0.2,3.2,2.7,3
				c3.1-0.2,4.3-1,4.3-3.1c-0.1-2-1.5-2.8-4.5-3C280.1,67.8,279.8,69.1,280.1,71z"/>
			<path d="M298.5,75.1c0-3.6,0.1-7.1,0-10.7c0-1.8,0.5-2.6,2.4-2.6c4.8,0.1,9.7,0.1,14.5,0c2.7-0.1,2.4,1.6,2.4,3.3
				c0.1,1.8-0.1,3.1-2.5,2.9c-2.8-0.2-5.6,0-8.4-0.1c-1.5,0-1.9,0.7-1.9,2.1c0,1.4,0.4,2.2,1.9,2.1c2-0.1,3.9,0.1,5.9,0
				c2.2-0.1,2.3,1.1,2.2,2.7c-0.1,1.5,0.3,3.2-2.1,3.1c-2-0.1-3.9,0.1-5.9,0c-1.7-0.1-2,0.7-2,2.2c0,1.6,0.5,2.2,2.1,2.1
				c2.9-0.1,5.7,0,8.6,0c1.7-0.1,2.4,0.6,2.4,2.3c0,3.8,0.1,3.9-3.6,3.9c-4.6,0-9.2,0-13.8,0c-1.7,0-2.3-0.6-2.3-2.3
				C298.5,82.5,298.5,78.8,298.5,75.1z"/>
			<path d="M390.4,88.9c-4.6,0-8.2-1.8-10.5-5.9c-0.8-1.4-0.8-2.4,1.1-2.8c0.8-0.2,1.6-0.4,2.4-0.6c1.2-0.4,2-0.1,2.6,1
				c1,1.8,2.7,2.6,4.8,2.5c1.2-0.1,2.3-0.5,2.6-1.8c0.3-1.3-0.6-2-1.6-2.4c-2.4-1-4.9-1.9-7.3-3c-2.9-1.4-4.5-3.7-4.3-7.1
				c0.1-1.8,0.9-3.2,2.1-4.4c4.7-4.8,13.8-3.6,17.2,2.2c0.9,1.5,0.8,2.5-1.1,2.9c-0.7,0.1-1.5,0.3-2.2,0.6c-1.2,0.5-2,0.2-2.8-1
				c-1.2-1.7-2.9-2.4-5-1.6c-1.7,0.7-1.9,2.1-0.3,3c1,0.6,2.2,1,3.3,1.5c2,0.7,4,1.5,5.7,2.6c4.8,3.2,4.7,9.5-0.1,12.6
				C394.9,88.4,392.7,88.9,390.4,88.9z"/>
			<path d="M159.3,81.3c0,1.8,0,3.6,0,5.4c0,0.9-0.3,1.7-1.4,1.6c-0.9,0-2.1,0.3-2.3-1.1c-0.2-1.7-1-1-1.8-0.5
				c-6.3,3.8-14.1,2.2-18.1-3.6c-4-5.8-3-14.2,2.2-18.5c5.7-4.7,14.1-4.3,19.1,1.1c0.7,0.7,2,1.5,1.2,2.8c-0.6,1-3.5,1-4.5,0.1
				c-2.8-2.6-5.9-3.5-9.6-2.4c-4.4,1.3-6.7,5.3-6.2,10.5c0.4,4.2,3.9,7.5,8.2,7.8c3.2,0.2,6-0.5,8.3-2.8c0.8-0.9,1.4-1.9,0.9-3.1
				c-0.5-1-1.6-0.6-2.4-0.7c-0.9-0.1-1.8,0-2.7,0c-1.4,0-2.1-0.5-2.1-2c0-1.4,0.7-1.8,2-1.8c2.4,0,4.8,0,7.3,0c1.4,0,2.1,0.5,2,2
				C159.3,77.8,159.3,79.5,159.3,81.3C159.3,81.3,159.3,81.3,159.3,81.3z"/>
			<path d="M95,75.1c0-3.7,0-7.4,0-11.1c0-1.2,0.2-2.1,1.7-2.1c4.1,0.1,8.3-0.4,12.4,0.3c6.6,1.1,11.3,6.8,11,13.3
				c-0.3,7.1-5.2,12.4-12.2,12.8c-3.7,0.2-7.4,0-11.1,0.1c-1.4,0-1.8-0.7-1.8-2C95,82.6,95,78.9,95,75.1z M99.3,75.1
				c0,2.3,0,4.7,0,7c0,1.4,0.5,2.1,2,2c1.9-0.1,3.8,0,5.7,0c5-0.2,8.4-3.8,8.4-8.8c0-5.1-3.4-8.9-8.4-9.2c-1.9-0.1-3.8,0-5.7-0.1
				c-1.6-0.1-2.1,0.7-2,2.2C99.4,70.5,99.3,72.8,99.3,75.1z"/>
			<path d="M259.7,61.8c2.9,0,5.9,0.1,8.8,0c2.4-0.1,2.5,1.3,2.4,3.1c0,1.6,0.2,3.1-2.3,3.2c-5.8,0-5.8,0.1-5.8,6c0,4-0.1,8,0,12
				c0,1.8-0.7,2.5-2.4,2.3c-0.1,0-0.2,0-0.2,0c-4,0.1-4,0.1-4-3.9c0-4.7-0.1-9.4,0-14.1c0-1.8-0.5-2.7-2.4-2.5c-0.7,0.1-1.5,0-2.3,0
				c-3.1,0-3.1,0-3.1-3.1c0-3,0-3,3.1-3C254.2,61.8,257,61.8,259.7,61.8z"/>
			<path d="M214.6,88.4c-1.6,0.4-2.3-0.7-2.9-2.2c-1.7-4.2-0.7-3.6-5.5-3.7c-1.7,0-3.3,0.2-5,0c-2.4-0.3-3.7,0.6-4.3,2.9
				c-0.5,1.8-1.2,3.4-3.7,3.1c-1.7-0.2-2.2-0.6-1.4-2.2c1.5-3.4,2.9-6.8,4.4-10.2c1.7-4,3.5-8.1,5.1-12.1c0.6-1.5,1.4-2.1,3.1-2.1
				c1.6,0,2.2,0.9,2.8,2.2c3.1,7.3,6.2,14.6,9.3,22C217.3,88.2,217.2,88.4,214.6,88.4z M204.2,67.8c-1.4,3.6-2.6,6.5-3.8,9.4
				c-0.4,1-0.2,1.4,0.9,1.4c2,0,3.9,0,5.9,0c0.9,0,1.3-0.4,0.9-1.3C206.8,74.3,205.6,71.3,204.2,67.8z"/>
			<path d="M180.8,77.2c0-3-0.1-6.1,0-9.1c0-1.5-0.5-2.1-2-2c-1.5,0.1-3,0-4.5,0c-1.4,0.1-2-0.6-2.1-2c0-1.4,0.4-2.3,2-2.3
				c5.8,0,11.6,0,17.5,0c1.7,0,2,0.9,2,2.3c0,1.4-0.6,2.1-2.1,2c-1.4-0.1-2.9,0.1-4.3,0c-1.7-0.1-2.2,0.6-2.2,2.2
				c0.1,5.8,0,11.6,0,17.5c0,1.5-0.1,2.6-2.1,2.6c-2.1,0-2.4-1-2.3-2.6C180.8,82.9,180.8,80.1,180.8,77.2z"/>
			<path d="M220.3,74.9c0-3.4,0-6.8,0-10.2c0-1.5,0-2.8,2.2-2.8c2.1,0,2.3,1.1,2.3,2.8c0,5.8,0,11.5,0,17.3c0,1.8,0.6,2.4,2.4,2.4
				c3-0.1,6.1,0,9.1,0c1.5,0,2.2,0.5,2.2,2.1c0,1.5-0.5,2.2-2.1,2.2c-4.6-0.1-9.2-0.1-13.8,0c-1.6,0-2.1-0.7-2.1-2.2
				C220.4,82.4,220.3,78.6,220.3,74.9z"/>
			<path d="M128.8,75.3c0,3.6-0.1,7.3,0,10.9c0,1.7-0.6,2.3-2.2,2.3c-1.7,0-2.2-0.7-2.2-2.3c0.1-7.3,0.1-14.7,0-22
				c0-1.7,0.6-2.3,2.2-2.3c1.7,0,2.2,0.7,2.2,2.3C128.8,67.9,128.8,71.6,128.8,75.3z"/>
			<path d="M164.9,74.9c0-3.4,0-6.8,0-10.2c0-1.5-0.1-2.8,2.1-2.9c2.3,0,2.3,1.3,2.3,3c0,6.9,0,13.8,0,20.6c0,1.5,0.3,3-2.1,3
				c-2.6,0-2.2-1.6-2.2-3.2C164.9,81.8,164.9,78.3,164.9,74.9z"/>
		</g>
	</g>
</g>
</svg>
