<?xml version="1.0" encoding="utf-8"?>
<!-- Generator: Adobe Illustrator 22.0.1, SVG Export Plug-In . SVG Version: 6.00 Build 0)  -->
<svg version="1.1" id="Layer_1" xmlns="http://www.w3.org/2000/svg" xmlns:xlink="http://www.w3.org/1999/xlink" x="0px" y="0px"
	 viewBox="0 0 400.7 150.2" style="enable-background:new 0 0 400.7 150.2;" xml:space="preserve">
<g>
	<path d="M87.5,93.5V56.9c0-1.8,0.5-3.4,1.3-4.2c0.8-1,2.1-1.3,3.4-1.3c1.3,0,2.6,0.5,3.4,1.3c0.8,1,1.3,2.4,1.3,4.2v36.6
		c0,1.8-0.5,3.4-1.3,4.4c-0.8,1-2.1,1.3-3.4,1.3c-1.3,0-2.4-0.5-3.4-1.6C88.1,96.7,87.5,95.4,87.5,93.5"/>
	<path d="M344.3,99.3c-13.3,0-24.1-10.7-24.1-24.1s10.7-24.1,24.1-24.1c13.3,0,24.1,10.7,24.1,24.1
		C368.3,88.3,357.6,99.3,344.3,99.3 M344.3,60.8c-7.8,0-14.4,6.5-14.4,14.4s6.5,14.4,14.4,14.4s14.4-6.5,14.4-14.4
		C358.7,67.1,352.1,60.8,344.3,60.8"/>
	<path d="M236.3,99.3c-13.3,0-24.1-10.7-24.1-24.1s10.7-24.1,24.1-24.1s24.1,10.7,24.1,24.1C260.4,88.3,249.4,99.3,236.3,99.3
		 M236.3,60.8c-7.8,0-14.4,6.5-14.4,14.4s6.5,14.4,14.4,14.4s14.4-6.5,14.4-14.4C250.4,67.1,244.2,60.8,236.3,60.8"/>
	<path d="M312.4,75.2L312.4,75.2L312.4,75.2c0-5.2-1.8-10.2-4.7-14.1c-4.2-5.8-11-9.7-18.8-9.9c-0.3,0-0.5,0-0.8,0h-12
		c-2.1,0-3.7,0.5-4.4,1.3c-1,1-1.3,2.4-1.3,4.4v18l0,0v18c0,2.1,0.5,3.7,1.3,4.4c1,1,2.4,1.3,4.4,1.3h12c0.3,0,0.5,0,0.8,0
		c7.6-0.3,14.4-3.9,18.8-9.9C310.8,85.4,312.4,80.4,312.4,75.2L312.4,75.2L312.4,75.2z M290.2,89.3c-1,0-2.4,0-3.7,0h-6.3V75l0,0
		V60.6h6.3c1.3,0,2.6,0,3.7,0c4.2,0.5,7.8,2.9,10.2,6c1.6,2.4,2.6,5,2.6,8.1l0,0l0,0l0,0l0,0c0,2.9-1,5.8-2.6,8.1
		C298,86.5,294.4,88.8,290.2,89.3"/>
	<path d="M198.4,51.2c-1.8-0.5-3.7,0.3-4.7,1.8L179,75.2L164.4,53c-1-1.6-2.9-2.4-4.7-1.8c-1.8,0.5-2.9,2.1-2.9,4.2v39.2
		c0,2.4,1.8,4.2,4.2,4.2s4.2-1.8,4.2-4.2V69.5l10.2,15.7l0,0l0,0l0,0c0,0,0,0.3,0.3,0.3l0,0c0,0,0,0.3,0.3,0.3c0,0,0,0,0.3,0.3l0,0
		l0.3,0.3l0,0l0,0c0,0,0.3,0,0.3,0.3l0,0h0.3c0.5,0.3,0.8,0.3,1.3,0.3l0,0h0.3c0,0,0,0,0.3,0c0,0,0,0,0.3,0h0.3l0,0
		c0.5,0,0.8-0.3,1.3-0.3h0.3l0,0c0,0,0.3,0,0.3-0.3l0,0l0,0c0,0,0.3,0,0.3-0.3l0,0c0,0,0,0,0.3-0.3c0,0,0,0,0.3-0.3l0,0l0.3-0.3l0,0
		l0,0l0,0l10.2-15.7v25.4c0,2.4,1.8,4.2,4.2,4.2s4.2-1.8,4.2-4.2V55.6C201.5,53.5,200.2,51.7,198.4,51.2"/>
	<path d="M143,97.7h-31.1c-1.6,0-3.4-1-4.2-2.6c-0.8-1.6-0.8-3.7,0.5-5.5l25.6-29.5h-21.2c-2.4,0-4.2-2.1-4.2-4.4s1.8-3.9,4.2-3.9
		h28.5c1.6,0,3.4,0.3,4.7,1.8c1.3,1.6,1.3,4.7-0.3,6.5L121,88.8h22c2.4,0,3.9,2.1,3.9,4.4C146.9,95.6,145.3,97.7,143,97.7"/>
	<path d="M56.4,99.3c-6.8,0-13.3-2.9-17.8-7.8c-3.9-4.4-6.3-10.2-6.3-15.9c0-17.8,14.9-24.6,24.3-24.6c9.2,0,15.9,4.4,16.2,4.7
		c2.1,1.3,2.6,4.2,1.3,6.3c-1.3,2.1-4.2,2.6-6.3,1.3c0,0-5-3.1-11.2-3.1c-5.8,0-13.9,3.9-13.9,15.4c0,6.5,5,14.4,13.9,14.4
		c5,0,8.6-1.3,10.7-2.6v-6.8h-7.1c-2.6,0-4.4-2.1-4.4-4.7c0-2.6,2.1-4.7,4.4-4.7h11.5c2.6,0,4.4,2.1,4.4,4.7v13.6
		c0,1.3-0.5,2.4-1.3,3.4C71.8,95.6,65.3,99.3,56.4,99.3"/>
</g>
</svg>
