<?xml version="1.0" encoding="utf-8"?>
<!-- Generator: Adobe Illustrator 22.0.1, SVG Export Plug-In . SVG Version: 6.00 Build 0)  -->
<svg version="1.1" id="Layer_1" xmlns="http://www.w3.org/2000/svg" xmlns:xlink="http://www.w3.org/1999/xlink" x="0px" y="0px"
	 viewBox="0 0 400.7 150.2" style="enable-background:new 0 0 400.7 150.2;" xml:space="preserve">
<g>
	<g>
		<path d="M150.8,69.1V94h-9.2V69.1h-9.2v-7.9H160v7.9H150.8z"/>
		<path d="M181.1,84.3h-14.6c0.3,2.7,1.9,4.1,4.1,4.1c2.2,0,4.1-0.5,6.5-1.6l3.2,5.4c-3,1.9-6.2,2.7-10,2.7
			c-7.3,0-11.6-5.1-11.6-12.7c0-8.4,4.9-13,11.4-13c6.8,0,11.1,4.6,11.1,13.5C181.4,83.5,181.4,83.8,181.1,84.3z M170,75.4
			c-1.9,0-3,1.4-3.2,3.8h7C173.3,76.4,172.5,75.4,170,75.4z"/>
		<path d="M197.1,94.9c-7.3,0-11.6-4.6-11.6-13c0-7.6,3.8-12.7,11.6-12.7c4.6,0,7.3,2.2,9.5,5.7l-6,4.3c-1.1-2.2-1.9-3.2-3.8-3.2
			c-2.2,0-3.2,2.2-3.2,6s1.1,6,3.5,6c1.6,0,2.7-0.8,4.3-3.2l5.4,4.1C204.1,93.2,201.4,94.9,197.1,94.9z"/>
		<path d="M225.8,94.3V80.2c0-3.2-1.1-4.1-2.7-4.1c-1.9,0-3,0.8-3,4.1v14.1h-8.4V63.4l8.4-3.5v11.4c1.6-1.1,3.2-2.2,6.2-2.2
			c5.4,0,8.1,3.5,8.1,10v15.2L225.8,94.3z"/>
		<path d="M254.8,94.9c-9.7,0-14.9-7.3-14.9-17.1c0-10.6,6.2-17.1,15.2-17.1c8.1,0,11.4,3.5,13.5,9.7l-8.4,3.2
			c-1.1-3-2.4-4.9-5.4-4.9c-3.8,0-5.4,3.8-5.4,8.9c0,5.1,1.6,8.9,5.7,8.9c3,0,4.1-1.6,6-4.6l7.9,4.1
			C266.1,90.5,262.4,94.9,254.8,94.9z"/>
		<path d="M289.2,78.9c-1.1-1.1-2.4-2.2-4.1-2.2c-2.2,0-3.2,1.1-3.2,4.1v13.5h-8.4V69.7h8.4v1.9c1.4-1.4,3-2.4,5.1-2.4
			c1.9,0,3,0.5,4.1,1.1L289.2,78.9z"/>
		<path d="M309.2,94.3v-1.6c-1.6,1.1-3.2,2.2-6.2,2.2c-5.4,0-8.1-3.5-8.1-10V69.7h8.4v14.1c0,3.2,1.1,4.1,2.7,4.1
			c1.6,0,2.7-0.8,2.7-4.1V69.7h8.4v24.6H309.2z"/>
		<path d="M338.2,94.3V80.2c0-3.2-1.1-4.1-2.7-4.1c-1.9,0-3,0.8-3,4.1v14.1h-8.4V69.7h8.4v1.6c1.6-1.1,3.2-2.2,6.2-2.2
			c5.4,0,8.1,3.5,8.1,10v15.2H338.2z"/>
		<path d="M363.1,94.9c-7.3,0-11.6-4.6-11.6-13c0-7.6,3.8-12.7,11.6-12.7c4.6,0,7.3,2.2,9.5,5.7l-6,4.3c-1.1-2.2-1.9-3.2-3.8-3.2
			c-2.2,0-3.2,2.2-3.2,6s1.1,6,3.5,6c1.6,0,2.7-0.8,4.3-3.2l5.4,4.1C370.1,93.2,367.4,94.9,363.1,94.9z"/>
		<path d="M392,94.3V80.2c0-3.2-1.1-4.1-2.7-4.1c-1.9,0-3,0.8-3,4.1v14.1H378V63.4l8.4-3.5v11.4c1.6-1.1,3.2-2.2,6.2-2.2
			c5.4,0,8.1,3.5,8.1,10v15.2L392,94.3z"/>
	</g>
	<g>
		<polygon points="0,48 0,64.3 16.2,64.3 16.2,102.2 37.9,102.2 37.9,64.3 56.9,64.3 56.9,48 		"/>
		<polygon points="75.8,85.9 75.8,64.3 56.9,64.3 56.9,102.2 113.7,102.2 113.7,85.9 		"/>
		<rect x="75.8" y="48" width="37.9" height="16.2"/>
	</g>
</g>
</svg>
