<?xml version="1.0" encoding="utf-8"?>
<!-- Generator: Adobe Illustrator 22.0.1, SVG Export Plug-In . SVG Version: 6.00 Build 0)  -->
<svg version="1.1" id="Layer_1" xmlns="http://www.w3.org/2000/svg" xmlns:xlink="http://www.w3.org/1999/xlink" x="0px" y="0px"
	 viewBox="0 0 400.7 150.2" style="enable-background:new 0 0 400.7 150.2;" xml:space="preserve">
<g>
	<path d="M39.4,115.1"/>
	<path d="M352,58.6l-0.4,2l-4.1,1.1c-0.9,0.2-1.8,1.1-2.2,1.6l-18.4,23.5l-6.9,23c-0.4,1.2,0.1,1.9,0.9,2.1l4.8,1.2l-0.7,2h-24.1
		l0.7-2l4.5-1.1c1.2-0.3,1.9-1,2.3-2.4l6.9-23.3l-6-22.7c-0.3-1.1-0.6-2-1.8-2.3l-2.9-0.8l0.4-2h20.6l-0.4,2l-3.5,1
		c-1.2,0.3-1.5,1-1.2,2.2l4.9,19.3l14.7-19.5c0.3-0.4,0.4-0.8,0.4-1.1c0-0.4-0.4-0.8-0.9-0.9l-4-1l0.5-2H352z"/>
	<path d="M304,71.5h-2.7l-2.4-7.4c-0.4-1.4-1.1-1.8-2.4-1.8h-6l-14.2,47.5c-0.4,1.2,0,1.9,1.1,2.2l4,1.1l-0.7,2H257l0.7-2l4.2-1
		c1.9-0.4,2.3-1,2.7-2.6l14-47.2h-7c-1.1,0-1.9,0.7-2.6,1.6l-4.9,6.8h-2.7l4.4-13.6h1.8c0.4,1,1.1,1.4,2.1,1.4H299
		c1.6,0,2.2-0.4,2.9-1.4h1.9L304,71.5z"/>
	<path d="M260.2,70.8h-2.7l-2.6-7c-0.4-1.1-1.2-1.4-2.2-1.4h-11.2l-6.4,21.5h10.6c1.1,0,1.8-0.5,2.5-1.6l3-4.3h2.7l-5,17.1h-2.7
		l0.1-6c0-1.1-0.7-1.4-1.8-1.4H234l-7,23.7h15.5c2.1,0,2.9-0.4,4-1.8l6.1-7.7h3l-6.3,14.8h-2c-0.5-1.1-1.3-1.5-3.3-1.5h-35.4l0.7-2
		l4.3-1.1c1.1-0.3,1.8-1,2.2-2.4l13.6-46c0.3-0.9,0-1.7-0.7-1.9l-3.8-1.2l0.5-2h30.6c1,0,1.9-0.4,2.4-1.4h1.8L260.2,70.8z"/>
	<path d="M351.5,43.8c-25.7,5.9-57.3,8.9-84.1,8.9c-66.9,0-113.9-9.1-133.8-13.8l-83.7,79.2l-6.8,0.9l24.6-74.8
		c-3.9,2.1-17.1,5.5-23.2,5.9c-1.9,0.1-2-0.9-1.1-1.4c5.8-3.4,8.6-6.1,11.2-12.7c12.1,2.9,21.2,0.7,32.2-3.4l-22.3,63l59.3-64.3
		c37.7,8.1,77.9,11.4,108.9,11.4c28.8,0,54.2-4.5,67.2-9.9c18.3,10.9,39.3,10,51.2,9.2C352.8,41.8,353,43.5,351.5,43.8z"/>
	<path d="M222.5,58.6l-0.5,2l-4.6,1.3c-0.9,0.3-1.3,0.8-1.6,1.9l-13.6,45.6c-0.4,1.4-0.7,2.2,1,2.7l3.3,1l-0.7,2h-21.8l0.7-2l3.2-1
		c1.8-0.6,2.3-1.2,2.7-2.6L204,63.7c0.3-1-0.1-1.6-0.8-1.9l-3.6-1.2l0.5-2H222.5z"/>
	<path d="M190,72.6c0,8.6-6.8,16-17.9,15.6c-1.9-0.1-4.6-0.4-6.4-1c0,10.5,3.2,21.2,9.4,21.2c3.8,0,5-3.2,5.5-5.9
		c0.1-0.4,0.4-0.8,1-0.2c1.5,1.5,2.7,3.5,2.7,6.6c0,6.4-4.1,9.3-10.2,9.3c-15.6,0-16.3-22.4-13.7-36.1c0.1-0.8,0.4-0.9,1-0.5
		c2,1.2,4.3,1.9,7.5,1.9c5,0,9.8-4,9.8-11.2c0-7.2-6-11.6-14.8-11.6l-14.6,49.2c-0.1,0.5-0.2,0.9-0.2,1.2c0,0.7,0.3,1,1,1.2l4.2,1.1
		l-0.7,2h-21.8l0.7-2l3.3-1c1-0.3,1.5-0.9,2-2.5l14.5-49.2c-6.3,1.3-9.3,3.6-9.3,7.2c0,2.1,0.5,3.1,1.1,3.9c0.2,0.3,0.3,0.7,0.3,1.1
		c0,0.8-0.7,1.5-2.7,1.5c-3.3,0-6.3-1.9-6.3-6.5c0-2.7,1.7-12,25.7-12C181.2,55.9,190,62.4,190,72.6z"/>
	<path d="M131.1,113.2l-0.7,2h-20.6l0.7-2l3.6-1c1-0.3,1.5-1,1.6-2.2l0.9-9.5H93.5l-7.6,9.2c-0.5,0.6-0.8,1.1-0.8,1.4
		c0,0.5,0.3,0.8,0.9,1l3.5,1.1l-0.7,2H71.6l0.8-2l3.6-0.9c1.3-0.3,2.5-1.3,3.5-2.4l46.9-55.1l4.8-0.9l-4.5,56.2
		c-0.1,1.2,0.1,2,1.4,2.3L131.1,113.2z M119.5,68.6L97,96.4h20L119.5,68.6z"/>
	<path d="M361.3,115.1"/>
</g>
</svg>
