<?xml version="1.0" encoding="utf-8"?>
<!-- Generator: Adobe Illustrator 22.0.1, SVG Export Plug-In . SVG Version: 6.00 Build 0)  -->
<svg version="1.1" id="Layer_1" xmlns="http://www.w3.org/2000/svg" xmlns:xlink="http://www.w3.org/1999/xlink" x="0px" y="0px"
	 viewBox="0 0 400.7 150.2" style="enable-background:new 0 0 400.7 150.2;" xml:space="preserve">
<g>
	<g>
		<path d="M0,95c0,4.3,3.5,7.7,7.8,7.7h31.6v-7.8H7.7v-7.8h31.4c4.3,0,8.2-3.6,8.2-7.9v0.2V63.8c0-4.3-3.9-8.4-8.2-8.4H7.8
			c-4.3,0-7.8,4.1-7.8,8.4L0,95z M39.4,79.2H7.7V63.1h31.7V79.2z"/>
		<path d="M144.9,55.3h-31.2c-4.3,0-8.4,4.1-8.4,8.4V95v-0.2c0,4.3,4.1,7.9,8.4,7.9h31.2v7.8h-31.7v7.8h31.8c4.3,0,7.7-3.4,7.7-7.7
			V63.8C152.7,59.4,149.2,55.3,144.9,55.3z M144.9,94.9h-31.7V63.1h31.7V94.9z"/>
		<path d="M84.2,55.3H60.7c-4.3,0-8.2,4.1-8.2,8.4v38.9h7.8V63.1h23.8c4.3,0,8,4.1,8,8.4v31.1h7.8V71.6
			C99.9,62.9,92.8,55.3,84.2,55.3z"/>
		<path d="M197.6,94.9h-17.2h-14.5V79.4v-7.8c0-4.3,4.3-8.4,8.6-8.4h23.2v39.5h7.8V63.8c0-4.3-3.2-8.4-7.5-8.4h-23.4
			c-8.6,0-16.4,7.6-16.4,16.2V95c0,4.3,4.3,7.7,8.6,7.7h13.8c6.9,0,14.3-2.9,17.2-7.7v7.7"/>
		<polygon points="376.8,31.9 369,31.9 369,102.7 376.8,102.7 376.8,63.1 400.7,63.1 400.7,55.3 376.8,55.3 		"/>
		<path d="M249.8,55.3h-30.3c-4.3,0-8.8,4.1-8.8,8.4V95v-0.2c0,4.3,4.5,7.9,8.8,7.9h38.6V31.9h-8.3V55.3z M249.8,94.9h-31.2V63.1
			h31.2V94.9z"/>
		<path d="M316.2,95c0,4.3,4.5,7.7,8.8,7.7h30.7v-7.8h-31.7v-7.8h32.3c4.3,0,7.3-3.6,7.3-7.9v0.2V63.8c0-4.3-3-8.4-7.3-8.4h-31.2
			c-4.3,0-8.8,4.1-8.8,8.4V95z M355.8,79.2h-31.7V63.1h31.7V79.2z"/>
	</g>
	<path d="M303.3,55.3h-31.2c-4.3,0-8.6,4.1-8.6,8.4V95v-0.2c0,4.3,4.3,7.9,8.6,7.9h31v7.8h-31.2v7.8h31.5c4.3,0,7.5-3.4,7.5-7.7
		V63.8C310.9,59.4,307.7,55.3,303.3,55.3z M303.1,94.9h-31.2V63.1h31.2V94.9z"/>
</g>
</svg>
