<?xml version="1.0" encoding="utf-8"?>
<!-- Generator: Adobe Illustrator 23.0.6, SVG Export Plug-In . SVG Version: 6.00 Build 0)  -->
<svg version="1.1" id="Layer_1" xmlns="http://www.w3.org/2000/svg" xmlns:xlink="http://www.w3.org/1999/xlink" x="0px" y="0px"
	 viewBox="0 0 400.7 150.2" style="enable-background:new 0 0 400.7 150.2;" xml:space="preserve">
<g>
	<path d="M225.1,117c-6.6,0.3-12.9-1.1-19.2-2.3c-0.6-0.1-0.7-0.4-0.7-1c0.1-6.4,0.1-12.8,0.2-19.2c0.2-11.2,0.1-22.5,0.1-33.7
		c0-3.7-0.2-7.3-0.3-11c-0.1-2-0.4-4-1.2-5.9c-0.6-1.4-1.6-2.3-3.1-2.7c-0.9-0.2-1.7-0.4-2.5-0.6c-0.8-0.2-1-0.7-0.9-1.8
		c0-0.7,0.2-1.1,1-1.3c7.7-1.6,15.4-3,23.1-4.4c0.7-0.1,1,0.1,1,0.9c-0.2,8.1-0.1,16.2-0.1,24.3c0,0.2,0,0.4,0,0.7
		c0,0.6,0.2,0.7,0.7,0.5c2-0.9,4-1.8,6.2-2.1c4.5-0.7,9-1,13.3,0.8c4.8,2,8.4,5.4,10.9,9.8c2.3,4,3.5,8.3,3.8,12.8
		c0.3,5.3,0.1,10.6-1.5,15.7c-2.9,9.5-9,15.8-18.4,18.9C233.4,116.9,229.3,117.1,225.1,117z M222.3,82.4c0.1,2.7,0,6.9,0.1,11
		c0.1,5.6,0.1,11.2,0.3,16.9c0.1,1.7,0.1,1.7,1.8,1.8c0.1,0,0.3,0,0.4,0c2.4,0.3,4.5-0.3,6.4-1.7c2.5-1.9,4-4.5,5.1-7.3
		c1.8-4.2,2.7-8.7,3-13.3c0.2-4.6,0.3-9.2-0.8-13.7c-0.8-3.5-2-6.8-4.5-9.5c-1.5-1.6-3.2-2.8-5.4-3c-1.9-0.2-3.9,0-5.7,0.7
		c-0.4,0.1-0.6,0.4-0.6,0.8c0,1.9-0.1,3.9-0.1,5.8C222.3,74.4,222.3,77.7,222.3,82.4z"/>
	<path d="M64.3,115.7c-7.5,0-12.6,0-17.7,0c-1.8,0-3.6-0.1-5.5-0.1c-0.6,0-0.9-0.3-0.9-0.9c0-0.6,0-1.1,0-1.7c0-0.7,0.3-1.2,1-1.3
		c0.9-0.2,1.8-0.5,2.8-0.6c3.6-0.5,5.5-2.7,6.4-6.1c0.5-2,0.7-4,0.9-6c0.5-7,0.4-14.1,0.5-21.2c0.1-6.5-0.1-12.9-0.1-19.4
		c0-4.1-0.2-8.2-1-12.2c-0.2-0.9-0.5-1.7-0.8-2.6c-1.1-3-3.4-4.4-6.5-4.7c-0.8-0.1-1.6-0.2-2.5-0.3c-0.5,0-0.7-0.3-0.7-0.7
		c0-0.9,0-1.8-0.1-2.8c0-0.4,0.2-0.5,0.5-0.6c0.3,0,0.6-0.1,0.9-0.1c8.8,0,17.7-0.2,26.5-0.1c12,0.1,24.1,0,36.1,0.1
		c1.2,0,1.2,0,1.3,1.2c0.2,3.2,0.3,6.5,0.3,9.7c0,3.8,0.1,7.6,0.2,11.3c0,0.7-0.2,1-0.9,1.2c-0.6,0.1-1.2,0.3-1.7,0.5
		c-1.2,0.3-1.6,0.2-2.1-1c-0.6-1.3-1.1-2.7-1.6-4c-1.4-3.2-3.1-6.2-5.7-8.6c-2.5-2.3-5.5-3.6-8.9-3.8c-4.5-0.2-9-0.1-13.5-0.2
		c-0.6,0-0.8,0.2-0.8,0.8c-0.3,3.1-0.3,6.1-0.4,9.2c-0.1,4.5-0.1,8.9-0.2,13.4c-0.1,2.5,0,4.9-0.1,7.4c0,0.7,0.2,0.9,0.9,0.9
		c2.9,0,5.8-0.1,8.6-0.4c2.1-0.2,3.7-1.4,4.9-3c1.4-1.8,2-4,2.6-6.2c0.4-1.7,0.1-1.5,2-1.6c0.5,0,1.1-0.1,1.6-0.1
		c0.5,0,0.7,0.2,0.7,0.6c0,0.1,0,0.3,0,0.4c0,8.5,0,17.1,0,25.6c0,1.1,0,1.1-1.1,1.1c-0.7,0-1.4-0.1-2-0.1c-0.6,0-0.8-0.3-0.9-0.8
		c-0.4-2-1-4-2-5.8c-0.3-0.6-0.7-1.2-1.2-1.8c-1.4-1.9-3.4-2.4-5.6-2.6c-2.5-0.2-5-0.3-7.5-0.3c-0.7,0-0.9,0.2-0.9,0.9
		c0,5,0.1,10,0.3,15c0.2,3.5,0.3,6.9,1,10.3c0.2,1,0.5,2,0.9,2.9c0.9,2.2,2.5,3.7,4.9,4.1c1.4,0.2,2.8,0.5,4.2,0.7
		c0.7,0.1,1.1,0.5,1.1,1.2c0,0.1,0,0.2,0,0.3c0.2,2.1,0,2.3-2.1,2.4C74.2,115.8,68,115.6,64.3,115.7z"/>
	<path d="M124.4,117c-3.3,0.2-7.2-0.4-10.9-1.9c-6.9-2.9-11.6-8-14.1-15c-1.4-3.8-2-7.7-2.2-11.7c-0.2-4.8,0.2-9.5,1.9-13.9
		c3.8-10.1,11-16.3,21.7-18c6-1,11.9-0.5,17.5,1.9c5.5,2.3,9.6,6.4,12.2,11.8c2.2,4.5,3.2,9.2,3.4,14.2c0.1,5.2-0.2,10.3-2.2,15.2
		c-3.9,9.8-11.1,15.5-21.5,17.3C128.6,117.1,126.8,117,124.4,117z M136,87.2c0-1.7,0-3.6-0.1-5.5c-0.2-3.7-0.6-7.3-1.6-10.9
		c-0.9-3.1-2.2-6-4.6-8.3c-2.6-2.6-7.1-2.4-9.4,0.2c-0.9,1.1-1.7,2.2-2.2,3.5c-1.8,4.4-2.4,9-2.6,13.7c-0.1,3.5-0.2,6.9-0.1,10.4
		c0.1,4.4,0.7,8.6,2,12.8c0.9,2.9,2,5.6,4.4,7.7c1.4,1.3,3.1,1.9,5,1.7c2.9-0.3,4.6-2.1,6-4.4c1.1-1.9,1.7-4,2.2-6.1
		C135.8,97.2,136,92.3,136,87.2z"/>
	<path d="M290.2,117c-6.4,0.2-12.1-1.6-17.2-5.4c-5.1-3.8-8.3-9-10-15c-0.7-2.4-0.9-4.9-1.1-7.4c-0.2-3.2-0.1-6.4,0.5-9.5
		c1.3-6.4,3.9-12.1,8.8-16.6c4-3.7,8.7-5.9,14-6.7c4.4-0.7,8.8-0.6,13.1,0.8c6,2,10,6.1,12.5,11.8c1.7,3.9,2.4,8,2.7,12.2
		c0,0.8,0.1,1.6,0,2.4c-0.1,0.5-0.3,0.7-0.8,0.7c-1.8,0-3.6,0-5.4,0c-5.1,0-10.2-0.1-15.3,0c-3.9,0.1-7.9,0-11.8,0.1
		c-0.5,0-0.8,0.1-0.8,0.7c0.1,5.2,0.8,10.3,3.7,14.8c3,4.6,7.1,7.5,12.8,8c3.5,0.3,7,0.2,10.3-1.2c1.4-0.6,2.6-1.4,3.9-2.1
		c0.6-0.4,1.1-0.6,1.7,0.1c0.9,1,1.1,1.6,0.5,2.4c-1,1.4-2.3,2.6-3.6,3.7c-4,3.4-8.7,5.3-13.8,6.1C293.3,117.1,291.8,117,290.2,117z
		 M282.5,79.3c0-0.1,0-0.1,0-0.2c2.1,0,4.3,0,6.4,0c2,0,4-0.1,6-0.2c1,0,1.1-0.1,1.1-1.1c-0.1-2.7-0.3-5.5-0.8-8.2
		c-0.4-2.2-1-4.3-2.1-6.3c-1.8-3.1-4.8-3.7-7.6-1.4c-0.9,0.8-1.6,1.7-2.3,2.7c-1.5,2.6-2.4,5.4-3,8.2c-0.4,1.8-0.7,3.7-0.8,5.5
		c0,0.6,0.2,0.8,0.7,0.8C281,79.2,281.7,79.3,282.5,79.3z"/>
	<path d="M335,117c-5.3,0.2-10.6-1-15.8-2.5c-2.3-0.6-2.2-0.7-2.3-3.1c-0.1-4.7-0.2-9.4-0.3-14.1c0-1.1,0.1-1.2,1.1-1.4
		c0,0,0,0,0.1,0c1.8-0.5,1.9-0.4,2.6,1.3c1.2,3,2.6,6,4.6,8.5c2,2.6,4.5,4.5,7.8,5.1c3,0.5,6,0.4,8.5-1.6c2.3-1.9,3.1-4.3,3-7.2
		c-0.1-2.6-1.5-4.3-3.5-5.7c-2.7-1.8-5.8-3-8.8-4.2c-2.3-0.9-4.6-1.8-6.7-3.1c-3.9-2.5-6.6-5.8-7.4-10.5
		c-1.9-10.3,4.3-17.8,12.1-20.7c4.2-1.5,8.5-1.9,12.9-1.6c4.1,0.3,8.2,0.9,12.1,2.2c2.1,0.7,2.1,0.7,2.2,3c0.2,4.1,0.3,8.3,0.3,12.4
		c0,0.7-0.2,1-0.9,1.3c-1.9,0.7-2.2,0.6-2.9-1.3c-1.1-2.7-2.2-5.5-4-7.8c-2.4-3.1-5.5-4.8-9.4-4.8c-3.7,0-6.9,3-7.1,6.7
		c-0.1,1-0.1,2,0.1,3c0.3,1.6,1.3,2.8,2.5,3.9c2,1.8,4.4,2.9,6.9,4.1c3.4,1.5,6.9,2.8,10,4.8c3.2,1.9,5.7,4.4,6.9,8
		c0.4,1,0.6,2,0.7,3.1c0.6,6.4-0.7,12.2-5.6,16.7c-2.8,2.6-6.3,4.1-9.9,5.1c-2.9,0.8-5.8,0.6-8.7,0.7C335.8,117,335.5,117,335,117z"
		/>
	<path d="M178.8,67.7c0.5-0.8,0.9-1.6,1.4-2.4c2.3-3.7,5.2-6.7,9.3-8.4c3.5-1.5,7.1-1.4,10.7-0.2c0.2,0.1,0.4,0.2,0.6,0.3
		c0.7,0.4,0.9,0.9,0.6,1.6c-0.7,2-1.4,4-2.1,6c-1,2.8-2.1,5.5-3.2,8.3c-0.3,0.8-0.5,0.9-1.3,0.5c-1.6-0.6-3.1-1.4-4.8-1.9
		c-3.1-0.9-6.1-0.7-9,0.6c-0.3,0.1-0.5,0.3-0.8,0.4c-1.2,0.6-1.6,1.5-1.6,2.8c-0.2,6.3-0.2,12.6-0.1,18.8c0.1,3.9,0.1,7.9,0.7,11.8
		c0.1,1,0.4,2,0.8,2.9c0.6,1.3,1.7,2.2,3.2,2.4c1.5,0.3,3,0.5,4.5,0.6c0.6,0,0.8,0.3,0.8,0.8c0,0.7,0,1.5-0.1,2.2
		c0,0.6-0.3,0.7-0.8,0.7c-1.8,0-3.6,0-5.4,0c-7,0.1-14,0.2-21,0.1c-2.2,0-4.4-0.1-6.5-0.1c-0.7,0-1-0.3-1-1c0-0.7,0-1.3,0-2
		c0-0.5,0.2-0.7,0.7-0.8c0.7-0.1,1.4-0.3,2.1-0.4c2.8-0.6,4.2-2.1,4.6-4.9c0.3-1.7,0.4-3.4,0.4-5.1c0.3-8.3,0.2-16.5,0.1-24.8
		c0-2.7-0.1-5.4-0.7-8.1c-0.2-0.7-0.4-1.4-0.8-2.1c-0.6-0.9-1.4-1.6-2.5-1.8c-1-0.2-2.1-0.5-3.1-0.6c-0.6-0.1-0.9-0.4-0.9-1
		c0-1.9-0.1-1.9,1.8-2.3c7.3-1.5,14.5-3,21.8-4.4c1.8-0.3,1.8-0.6,1.8,1.5c-0.1,3.1-0.3,6.2-0.4,9.3c0,0.2,0,0.4,0,0.6
		C178.7,67.7,178.8,67.7,178.8,67.7z"/>
</g>
</svg>
