<?xml version="1.0" encoding="utf-8"?>
<!-- Generator: Adobe Illustrator 24.0.1, SVG Export Plug-In . SVG Version: 6.00 Build 0)  -->
<svg version="1.1" id="Layer_1" xmlns="http://www.w3.org/2000/svg" xmlns:xlink="http://www.w3.org/1999/xlink" x="0px" y="0px"
	 viewBox="0 0 400.7 150.2" style="enable-background:new 0 0 400.7 150.2;" xml:space="preserve">
<g>
	<path d="M304.4,54.3v41.8H325c5.8,0,9.1-0.9,11.5-3c3-2.7,4.5-7.6,4.5-17.9s-1.5-15.2-4.5-17.9c-2.4-2.1-5.8-3-11.5-3H304.4z
		 M332.6,75.2c0,9.1-0.6,11.2-2.4,12.4c-1.2,0.9-2.7,1.2-5.8,1.2h-11.5V61.2h11.5c3,0,4.5,0,5.8,1.2C331.9,64,332.6,66.1,332.6,75.2
		z M351.7,105.3h-60.5V44.9h60.5V105.3z M241.7,61.2v-7h35.8v13.3h-7.6v-6.4h-14.6v10h11.5v6.7h-11.5v11.2h14.9v-7.3h7.6v14.3h-36.1
		v-7h5.8V61.2H241.7z M209.3,85.2c0,4.5,0.3,7.9,0.9,10.6h8.2c-0.3-2.1-0.6-6.1-0.6-11.2c-0.3-6.1-2.1-7-6.4-7.9c4.9-0.9,7-3,7-10.6
		c0-6.1-0.9-8.5-2.7-10c-1.2-1.2-3.3-1.8-6.7-1.8h-25.5v41.8h8.5V79.7h11.8c2.4,0,3.3,0.3,4.2,0.9C209,81.2,209.3,82.1,209.3,85.2z
		 M192,73.1V61.5h13.6c1.8,0,2.4,0.3,2.7,0.6c0.6,0.6,1.2,1.5,1.2,5.2c0,3.6-0.6,4.9-1.2,5.5c-0.3,0.3-0.9,0.6-2.7,0.6L192,73.1z
		 M230.5,105.3h-60.6V44.9h60.5v60.5H230.5z M154.1,89.1v7h-28.8v-7h10.3V61.2h-10.3v-7h28.8v7h-10.3v27.9H154.1z M105.4,54.3h-7.9
		l-5.8,33.1l-6.7-30.6c-0.3-2.1-1.2-2.4-3-2.4h-4.2c-1.8,0-2.7,0.6-3,2.4l-6.7,30.6l-5.8-33.1h-8.5L62.1,94c0.3,1.8,0.9,2.1,3,2.1
		h5.8c1.8,0,2.4-0.3,3-2.1l6.4-28.8L86.6,94c0.3,1.8,0.9,2.1,3,2.1h5.5c1.8,0,2.7-0.3,3-2.1L105.4,54.3z M109.7,105.3H49V44.9h60.5
		v60.5H109.7z"/>
</g>
</svg>
